<svg xmlns="http://www.w3.org/2000/svg" xmlns:xlink="http://www.w3.org/1999/xlink" width="1080" zoomAndPan="magnify" viewBox="0 0 810 809.999993" height="1080" preserveAspectRatio="xMidYMid meet" version="1.0"><defs><g/><clipPath id="dd8346caaa"><path d="M 43.988281 261.652344 L 107.863281 261.652344 L 107.863281 325.527344 L 43.988281 325.527344 Z M 43.988281 261.652344 " clip-rule="nonzero"/></clipPath><clipPath id="6ee94e3418"><path d="M 75.925781 261.652344 C 73.828125 261.652344 71.753906 261.855469 69.695312 262.265625 C 67.640625 262.675781 65.640625 263.28125 63.703125 264.082031 C 61.765625 264.886719 59.925781 265.871094 58.183594 267.035156 C 56.4375 268.199219 54.824219 269.523438 53.34375 271.007812 C 51.859375 272.488281 50.535156 274.101562 49.371094 275.847656 C 48.207031 277.589844 47.222656 279.429688 46.421875 281.367188 C 45.617188 283.304688 45.011719 285.300781 44.601562 287.359375 C 44.195312 289.414062 43.988281 291.492188 43.988281 293.589844 C 43.988281 295.6875 44.195312 297.765625 44.601562 299.820312 C 45.011719 301.878906 45.617188 303.875 46.421875 305.8125 C 47.222656 307.75 48.207031 309.589844 49.371094 311.332031 C 50.535156 313.078125 51.859375 314.691406 53.34375 316.171875 C 54.824219 317.65625 56.4375 318.980469 58.183594 320.144531 C 59.925781 321.308594 61.765625 322.292969 63.703125 323.097656 C 65.640625 323.898438 67.640625 324.503906 69.695312 324.914062 C 71.753906 325.324219 73.828125 325.527344 75.925781 325.527344 C 78.023438 325.527344 80.101562 325.324219 82.15625 324.914062 C 84.214844 324.503906 86.210938 323.898438 88.148438 323.097656 C 90.085938 322.292969 91.925781 321.308594 93.671875 320.144531 C 95.414062 318.980469 97.027344 317.65625 98.511719 316.171875 C 99.992188 314.691406 101.316406 313.078125 102.480469 311.332031 C 103.648438 309.589844 104.632812 307.75 105.433594 305.8125 C 106.234375 303.875 106.84375 301.878906 107.25 299.820312 C 107.660156 297.765625 107.863281 295.6875 107.863281 293.589844 C 107.863281 291.492188 107.660156 289.414062 107.25 287.359375 C 106.84375 285.300781 106.234375 283.304688 105.433594 281.367188 C 104.632812 279.429688 103.648438 277.589844 102.480469 275.847656 C 101.316406 274.101562 99.992188 272.488281 98.511719 271.007812 C 97.027344 269.523438 95.414062 268.199219 93.671875 267.035156 C 91.925781 265.871094 90.085938 264.886719 88.148438 264.082031 C 86.210938 263.28125 84.214844 262.675781 82.15625 262.265625 C 80.101562 261.855469 78.023438 261.652344 75.925781 261.652344 Z M 75.925781 261.652344 " clip-rule="nonzero"/></clipPath><clipPath id="804abfb59c"><path d="M 146.195312 261.652344 L 210.070312 261.652344 L 210.070312 325.527344 L 146.195312 325.527344 Z M 146.195312 261.652344 " clip-rule="nonzero"/></clipPath><clipPath id="0cf9bb7ce3"><path d="M 178.132812 261.652344 C 176.035156 261.652344 173.957031 261.855469 171.902344 262.265625 C 169.84375 262.675781 167.847656 263.28125 165.910156 264.082031 C 163.972656 264.886719 162.132812 265.871094 160.390625 267.035156 C 158.644531 268.199219 157.03125 269.523438 155.550781 271.007812 C 154.066406 272.488281 152.742188 274.101562 151.578125 275.847656 C 150.410156 277.589844 149.429688 279.429688 148.625 281.367188 C 147.824219 283.304688 147.21875 285.300781 146.808594 287.359375 C 146.398438 289.417969 146.195312 291.492188 146.195312 293.589844 C 146.195312 295.6875 146.398438 297.765625 146.808594 299.820312 C 147.21875 301.878906 147.824219 303.875 148.625 305.8125 C 149.429688 307.75 150.410156 309.589844 151.578125 311.332031 C 152.742188 313.078125 154.066406 314.691406 155.550781 316.171875 C 157.03125 317.65625 158.644531 318.980469 160.390625 320.144531 C 162.132812 321.3125 163.972656 322.292969 165.910156 323.097656 C 167.847656 323.898438 169.84375 324.503906 171.902344 324.914062 C 173.957031 325.324219 176.035156 325.527344 178.132812 325.527344 C 180.230469 325.527344 182.304688 325.324219 184.363281 324.914062 C 186.421875 324.503906 188.417969 323.898438 190.355469 323.097656 C 192.292969 322.292969 194.132812 321.3125 195.875 320.144531 C 197.621094 318.980469 199.234375 317.65625 200.714844 316.171875 C 202.199219 314.691406 203.523438 313.078125 204.6875 311.332031 C 205.851562 309.589844 206.835938 307.75 207.640625 305.8125 C 208.441406 303.875 209.046875 301.878906 209.457031 299.820312 C 209.867188 297.765625 210.070312 295.6875 210.070312 293.589844 C 210.070312 291.492188 209.867188 289.417969 209.457031 287.359375 C 209.046875 285.300781 208.441406 283.304688 207.640625 281.367188 C 206.835938 279.429688 205.851562 277.589844 204.6875 275.847656 C 203.523438 274.101562 202.199219 272.488281 200.714844 271.007812 C 199.234375 269.523438 197.621094 268.199219 195.875 267.035156 C 194.132812 265.871094 192.292969 264.886719 190.355469 264.082031 C 188.417969 263.28125 186.421875 262.675781 184.363281 262.265625 C 182.304688 261.855469 180.230469 261.652344 178.132812 261.652344 Z M 178.132812 261.652344 " clip-rule="nonzero"/></clipPath><clipPath id="64827c77a4"><path d="M 248.402344 261.652344 L 312.277344 261.652344 L 312.277344 325.527344 L 248.402344 325.527344 Z M 248.402344 261.652344 " clip-rule="nonzero"/></clipPath><clipPath id="58482ace8b"><path d="M 280.339844 261.652344 C 278.242188 261.652344 276.164062 261.855469 274.109375 262.265625 C 272.050781 262.675781 270.054688 263.28125 268.117188 264.082031 C 266.179688 264.886719 264.339844 265.871094 262.59375 267.035156 C 260.851562 268.199219 259.238281 269.523438 257.753906 271.007812 C 256.273438 272.488281 254.949219 274.101562 253.78125 275.847656 C 252.617188 277.589844 251.632812 279.429688 250.832031 281.367188 C 250.027344 283.304688 249.421875 285.300781 249.015625 287.359375 C 248.605469 289.414062 248.402344 291.492188 248.402344 293.589844 C 248.402344 295.6875 248.605469 297.765625 249.015625 299.820312 C 249.421875 301.878906 250.027344 303.875 250.832031 305.8125 C 251.632812 307.75 252.617188 309.589844 253.78125 311.332031 C 254.949219 313.078125 256.273438 314.691406 257.753906 316.171875 C 259.238281 317.65625 260.851562 318.980469 262.59375 320.144531 C 264.339844 321.308594 266.179688 322.292969 268.117188 323.097656 C 270.054688 323.898438 272.050781 324.503906 274.109375 324.914062 C 276.164062 325.324219 278.242188 325.527344 280.339844 325.527344 C 282.433594 325.527344 284.511719 325.324219 286.570312 324.914062 C 288.625 324.503906 290.625 323.898438 292.558594 323.097656 C 294.496094 322.292969 296.339844 321.308594 298.082031 320.144531 C 299.824219 318.980469 301.4375 317.65625 302.921875 316.171875 C 304.40625 314.691406 305.730469 313.078125 306.894531 311.332031 C 308.058594 309.589844 309.042969 307.75 309.84375 305.8125 C 310.648438 303.875 311.253906 301.878906 311.664062 299.820312 C 312.070312 297.765625 312.277344 295.6875 312.277344 293.589844 C 312.277344 291.492188 312.070312 289.414062 311.664062 287.359375 C 311.253906 285.300781 310.648438 283.304688 309.84375 281.367188 C 309.042969 279.429688 308.058594 277.589844 306.894531 275.847656 C 305.730469 274.101562 304.40625 272.488281 302.921875 271.007812 C 301.4375 269.523438 299.824219 268.199219 298.082031 267.035156 C 296.339844 265.871094 294.496094 264.886719 292.558594 264.082031 C 290.625 263.28125 288.625 262.675781 286.570312 262.265625 C 284.511719 261.855469 282.433594 261.652344 280.339844 261.652344 Z M 280.339844 261.652344 " clip-rule="nonzero"/></clipPath></defs><rect x="-81" width="972" fill="#ffffff" y="-80.999999" height="971.999992" fill-opacity="1"/><rect x="-81" width="972" fill="#ffffff" y="-80.999999" height="971.999992" fill-opacity="1"/><g fill="#222222" fill-opacity="1"><g transform="translate(35.228333, 441.986014)"><g><path d="M 45.96875 0 L 27.375 0 L -0.09375 -70.703125 L 19.09375 -70.703125 L 37.171875 -18.6875 L 55.25 -70.703125 L 73.734375 -70.703125 Z M 45.96875 0 "/></g></g></g><g fill="#222222" fill-opacity="1"><g transform="translate(153.318354, 441.986014)"><g><path d="M 62.421875 -56.5625 L 25.046875 -56.5625 L 25.046875 -42.53125 L 58.796875 -42.53125 L 58.796875 -28.390625 L 25.046875 -28.390625 L 25.046875 -14.140625 L 63.53125 -14.140625 L 63.53125 0 L 7.078125 0 L 7.078125 -70.703125 L 62.421875 -70.703125 Z M 62.421875 -56.5625 "/></g></g></g><g fill="#222222" fill-opacity="1"><g transform="translate(265.85252, 441.986014)"><g><path d="M 49.703125 0 L 39.1875 -19.90625 L 25.046875 -19.90625 L 25.046875 0 L 7.078125 0 L 7.078125 -70.703125 L 38.6875 -70.703125 C 48.050781 -70.703125 55.289062 -68.5625 60.40625 -64.28125 C 65.519531 -60.007812 68.078125 -53.9375 68.078125 -46.0625 C 68.078125 -35.15625 63.800781 -27.578125 55.25 -23.328125 L 70.109375 0 Z M 25.046875 -34.046875 L 38.6875 -34.046875 C 42.59375 -34.046875 45.625 -35.019531 47.78125 -36.96875 C 49.9375 -38.925781 51.015625 -41.753906 51.015625 -45.453125 C 51.015625 -49.085938 49.9375 -51.847656 47.78125 -53.734375 C 45.625 -55.617188 42.59375 -56.5625 38.6875 -56.5625 L 25.046875 -56.5625 Z M 25.046875 -34.046875 "/></g></g></g><g fill="#222222" fill-opacity="1"><g transform="translate(383.437468, 441.986014)"><g><path d="M 40.609375 -71.3125 C 51.585938 -71.3125 60.710938 -67.894531 67.984375 -61.0625 C 75.253906 -54.226562 78.890625 -45.691406 78.890625 -35.453125 C 78.890625 -25.148438 75.234375 -16.53125 67.921875 -9.59375 C 60.617188 -2.65625 51.515625 0.8125 40.609375 0.8125 C 29.703125 0.8125 20.609375 -2.640625 13.328125 -9.546875 C 6.054688 -16.453125 2.421875 -25.085938 2.421875 -35.453125 C 2.421875 -45.753906 6.054688 -54.304688 13.328125 -61.109375 C 20.609375 -67.910156 29.703125 -71.3125 40.609375 -71.3125 Z M 40.8125 -56.265625 C 35.289062 -56.265625 30.578125 -54.257812 26.671875 -50.25 C 22.765625 -46.25 20.8125 -41.285156 20.8125 -35.359375 C 20.8125 -29.429688 22.78125 -24.429688 26.71875 -20.359375 C 30.65625 -16.285156 35.351562 -14.25 40.8125 -14.25 C 46.269531 -14.25 50.898438 -16.285156 54.703125 -20.359375 C 58.503906 -24.429688 60.40625 -29.429688 60.40625 -35.359375 C 60.40625 -41.285156 58.503906 -46.25 54.703125 -50.25 C 50.898438 -54.257812 46.269531 -56.265625 40.8125 -56.265625 Z M 40.8125 -56.265625 "/></g></g></g><g fill="#222222" fill-opacity="1"><g transform="translate(509.204689, 441.986014)"><g><path d="M 72.328125 0 L 56.46875 0 L 23.9375 -43.53125 L 23.9375 0 L 7.078125 0 L 7.078125 -70.703125 L 22.9375 -70.703125 L 55.5625 -27.078125 L 55.5625 -70.703125 L 72.328125 -70.703125 Z M 72.328125 0 "/></g></g></g><g fill="#222222" fill-opacity="1"><g transform="translate(633.052598, 441.986014)"><g><path d="M 25.046875 0 L 7.078125 0 L 7.078125 -70.703125 L 25.046875 -70.703125 Z M 25.046875 0 "/></g></g></g><g fill="#222222" fill-opacity="1"><g transform="translate(709.625241, 441.986014)"><g><path d="M 53.140625 0 L 34.453125 -27.78125 L 25.046875 -17.375 L 25.046875 0 L 7.078125 0 L 7.078125 -70.703125 L 25.046875 -70.703125 L 25.046875 -40.109375 L 52.125 -70.703125 L 72.9375 -70.703125 L 46.671875 -41.421875 L 74.65625 0 Z M 53.140625 0 "/></g></g></g><g fill="#222222" fill-opacity="1"><g transform="translate(43.98886, 536.834633)"><g><path d="M 34.015625 -18.140625 C 34.015625 -12.273438 32.34375 -7.785156 29 -4.671875 C 25.664062 -1.554688 20.851562 0 14.5625 0 L 4.484375 0 L 4.484375 -35.59375 L 15.65625 -35.59375 C 21.46875 -35.59375 25.976562 -34.054688 29.1875 -30.984375 C 32.40625 -27.921875 34.015625 -23.640625 34.015625 -18.140625 Z M 26.171875 -17.9375 C 26.171875 -25.582031 22.796875 -29.40625 16.046875 -29.40625 L 12.03125 -29.40625 L 12.03125 -6.234375 L 15.265625 -6.234375 C 22.535156 -6.234375 26.171875 -10.132812 26.171875 -17.9375 Z M 26.171875 -17.9375 "/></g></g></g><g fill="#222222" fill-opacity="1"><g transform="translate(94.3547, 536.834633)"><g><path d="M 24.984375 0 L 4.484375 0 L 4.484375 -35.59375 L 24.984375 -35.59375 L 24.984375 -29.40625 L 12.03125 -29.40625 L 12.03125 -21.59375 L 24.078125 -21.59375 L 24.078125 -15.40625 L 12.03125 -15.40625 L 12.03125 -6.234375 L 24.984375 -6.234375 Z M 24.984375 0 "/></g></g></g><g fill="#222222" fill-opacity="1"><g transform="translate(135.738496, 536.834633)"><g><path d="M 24.78125 -35.59375 L 32.40625 -35.59375 L 20.296875 0 L 12.078125 0 L 0 -35.59375 L 7.625 -35.59375 L 14.3125 -14.40625 C 14.6875 -13.15625 15.070312 -11.695312 15.46875 -10.03125 C 15.863281 -8.375 16.113281 -7.222656 16.21875 -6.578125 C 16.394531 -8.066406 17.003906 -10.675781 18.046875 -14.40625 Z M 24.78125 -35.59375 "/></g></g></g><g clip-path="url(#dd8346caaa)"><g clip-path="url(#6ee94e3418)"><path fill="#ff5c5c" d="M 43.988281 261.652344 L 107.863281 261.652344 L 107.863281 325.527344 L 43.988281 325.527344 Z M 43.988281 261.652344 " fill-opacity="1" fill-rule="nonzero"/></g></g><g clip-path="url(#804abfb59c)"><g clip-path="url(#0cf9bb7ce3)"><path fill="#a8a8a8" d="M 146.195312 261.652344 L 210.070312 261.652344 L 210.070312 325.527344 L 146.195312 325.527344 Z M 146.195312 261.652344 " fill-opacity="1" fill-rule="nonzero"/></g></g><g clip-path="url(#64827c77a4)"><g clip-path="url(#58482ace8b)"><path fill="#ffbd4a" d="M 248.402344 261.652344 L 312.277344 261.652344 L 312.277344 325.527344 L 248.402344 325.527344 Z M 248.402344 261.652344 " fill-opacity="1" fill-rule="nonzero"/></g></g></svg>